<?xml version="1.0" standalone="no"?>
<!DOCTYPE svg PUBLIC "-//W3C//DTD SVG 20010904//EN"
 "http://www.w3.org/TR/2001/REC-SVG-20010904/DTD/svg10.dtd">
<svg version="1.0" xmlns="http://www.w3.org/2000/svg"
 width="2380.000000pt" height="2380.000000pt" viewBox="0 0 2380.000000 2380.000000"
 preserveAspectRatio="xMidYMid meet">
<metadata>
Created by potrace 1.11, written by Peter Selinger 2001-2013
</metadata>
<g transform="translate(0.000000,2380.000000) scale(0.100000,-0.100000)"
fill="#000000" stroke="none">
<path d="M11808 14746 c-56 -57 -315 -320 -575 -583 -259 -263 -560 -568 -668
-678 -108 -110 -412 -418 -675 -685 -263 -267 -569 -577 -680 -690 -111 -113
-424 -430 -695 -705 -271 -275 -598 -607 -726 -737 -249 -253 -1118 -1134
-1306 -1325 l-113 -114 -1 2078 c0 1143 -2 2092 -4 2108 -10 98 -15 128 -30
200 -45 218 -162 460 -308 640 -96 117 -259 260 -392 342 -52 32 -230 118
-267 128 -5 2 -10 4 -13 5 -3 1 -8 3 -12 4 -5 2 -28 8 -53 16 -25 7 -51 15
-59 16 -7 1 -34 7 -60 13 -120 28 -176 34 -316 34 -120 1 -243 -10 -310 -27
-11 -2 -47 -11 -80 -19 -33 -8 -80 -22 -105 -31 -25 -10 -49 -18 -55 -20 -5
-1 -35 -13 -65 -26 -276 -121 -504 -315 -672 -571 -53 -81 -128 -226 -128
-247 0 -5 -6 -15 -14 -21 -11 -9 -16 -5 -26 21 -27 68 -79 170 -96 189 -9 10
-14 19 -11 19 10 0 -63 103 -126 180 -55 66 -161 171 -217 213 -30 23 -57 45
-60 48 -12 15 -158 103 -230 138 -116 58 -320 123 -420 136 -215 27 -358 25
-545 -8 -176 -31 -390 -121 -561 -235 -220 -148 -405 -361 -518 -597 -68 -140
-106 -265 -142 -459 -4 -17 -7 -1047 -9 -2288 l-2 -2258 97 0 97 0 0 2198 c0
1208 3 2229 7 2267 7 80 19 147 40 220 32 112 38 130 44 140 4 6 7 12 7 15 1
3 13 31 28 63 15 32 27 62 27 67 0 6 4 10 8 10 5 0 17 18 27 40 10 22 22 40
27 40 4 0 8 5 8 10 0 34 266 320 297 320 7 0 13 4 13 8 0 20 258 166 330 186
14 4 34 11 45 17 29 13 162 44 250 59 53 9 356 7 371 -3 5 -3 27 -8 49 -11
111 -18 295 -83 387 -137 27 -16 53 -29 58 -29 6 0 10 -4 10 -10 0 -5 5 -10
11 -10 10 0 72 -44 138 -97 46 -37 158 -151 198 -200 118 -147 215 -354 254
-543 5 -25 12 -56 16 -70 5 -22 14 -480 13 -685 0 -44 0 -134 1 -200 0 -66 1
-124 0 -130 0 -21 -1 -3373 -1 -3452 l0 -83 100 0 101 0 -3 65 c-2 36 1 65 5
65 5 0 5 5 2 11 -7 10 -10 112 -5 134 1 6 1 15 0 20 -1 6 -1 73 0 150 0 77 1
147 1 155 -1 8 -1 44 0 80 0 36 0 72 0 80 -1 8 -1 44 0 80 0 36 0 72 0 80 -1
8 -1 44 0 80 0 89 0 105 -2 180 0 36 0 70 1 75 1 6 2 12 1 15 -7 17 -5 140 2
140 5 0 5 5 2 11 -7 10 -10 112 -5 134 1 6 1 15 0 20 -1 6 -1 73 0 150 0 77 1
147 1 155 -1 8 -1 44 0 80 0 84 0 106 -2 189 0 38 2 74 6 80 3 6 3 11 -2 11
-7 0 -9 123 -2 140 1 3 0 10 -1 15 -5 22 -2 124 5 134 3 6 3 11 -2 11 -4 0 -7
35 -5 77 3 87 3 78 1 172 0 38 2 74 6 80 3 6 3 11 -2 11 -7 0 -9 123 -2 140 1
3 0 10 -1 15 -5 22 -2 124 5 134 3 6 3 11 -2 11 -4 0 -7 33 -5 72 1 40 2 91 2
113 -2 73 -2 120 0 130 1 6 1 15 0 20 -5 22 -2 124 5 134 3 6 3 11 -2 11 -4 0
-7 24 -6 52 2 29 3 73 3 98 -1 25 0 101 0 170 0 69 1 132 1 140 -1 8 -1 44 0
80 0 36 0 82 0 103 -1 20 -1 58 -1 85 -1 89 26 253 56 342 9 25 17 52 19 60 2
8 13 36 25 62 11 26 20 49 19 50 -1 2 10 22 24 45 15 24 27 45 27 48 0 8 92
146 120 180 63 75 203 207 256 241 16 10 31 21 34 24 22 23 237 137 271 144 8
2 22 6 32 9 16 7 34 12 49 16 4 1 22 7 40 12 18 6 42 12 53 14 11 3 31 7 45
10 126 28 306 32 455 12 199 -28 498 -157 613 -266 12 -12 22 -19 22 -15 0 8
174 -167 208 -209 12 -15 22 -31 22 -36 0 -5 4 -11 9 -13 19 -6 137 -211 146
-253 1 -5 12 -30 23 -55 20 -44 55 -169 67 -240 4 -19 9 -48 12 -65 3 -16 6
-1033 8 -2260 1 -1226 3 -2233 4 -2237 0 -5 43 -8 95 -8 l95 0 98 99 c209 212
1012 1026 1203 1221 111 113 410 417 665 675 255 259 566 574 692 702 125 127
445 451 709 720 265 268 557 565 649 658 l168 170 1361 1 1361 0 230 -232
c437 -440 1601 -1616 1918 -1937 268 -271 821 -828 1870 -1887 l188 -190 861
0 862 0 -35 37 c-18 20 -61 64 -94 98 -33 35 -123 129 -200 211 -77 81 -165
173 -195 205 -47 48 -185 193 -411 430 -253 266 -371 389 -409 429 -254 265
-356 372 -358 380 -2 6 -9 10 -15 10 -9 0 -12 -187 -11 -761 l2 -760 -270 273
c-148 150 -575 581 -948 958 -374 377 -826 834 -1005 1015 -180 182 -548 553
-818 826 -271 273 -782 790 -1137 1148 -355 359 -812 821 -1017 1027 l-371
375 -104 -105z"/>
<path d="M17512 14781 c-23 -22 -32 -39 -33 -63 0 -18 -1 -351 -1 -740 0 -656
1 -708 17 -736 19 -31 63 -50 103 -44 25 4 1464 1429 1487 1473 23 44 2 108
-42 128 -17 8 -242 11 -761 11 l-738 0 -32 -29z"/>
<path d="M21800 14803 c-20 -6 -48 -45 -54 -76 -9 -52 -59 0 1139 -1211 160
-162 304 -301 322 -310 28 -14 35 -14 67 -1 66 28 64 -6 64 795 0 786 1 774
-54 799 -18 8 -226 11 -747 10 -397 -1 -729 -3 -737 -6z"/>
</g>
</svg>
