<?xml version="1.0" encoding="utf-8"?>
<!-- Generator: Adobe Illustrator 16.0.0, SVG Export Plug-In . SVG Version: 6.00 Build 0)  -->
<!DOCTYPE svg PUBLIC "-//W3C//DTD SVG 1.1//EN" "http://www.w3.org/Graphics/SVG/1.1/DTD/svg11.dtd">
<svg version="1.1" id="Layer_1" xmlns="http://www.w3.org/2000/svg" xmlns:xlink="http://www.w3.org/1999/xlink" x="0px" y="0px"
	 width="595.28px" height="170.08px" viewBox="0 0 595.28 170.08" enable-background="new 0 0 595.28 170.08" xml:space="preserve">
<g>
	<path d="M438.674,52.414c0.301,0.125,0.617,0.186,0.932,0.186c0.631,0,1.252-0.246,1.717-0.709l23.709-23.628l11.895-11.854l0,0v0
		c0.697-0.695,0.906-1.741,0.531-2.65c-0.377-0.909-1.264-1.502-2.246-1.502h-35.605c-1.342,0-2.43,1.088-2.43,2.431v35.483
		C437.176,51.151,437.768,52.037,438.674,52.414z"/>
	<path d="M581.277,12.255H546.27c-0.98,0-1.863,0.589-2.242,1.493c-0.377,0.904-0.176,1.947,0.512,2.645v0v0l23.129,23.442
		l11.879,12.04c0.465,0.472,1.092,0.724,1.73,0.724c0.311,0,0.623-0.06,0.922-0.182c0.912-0.374,1.508-1.263,1.508-2.249V14.686
		C583.707,13.343,582.619,12.255,581.277,12.255z"/>
	<path d="M437.184,113.586v38.292L297.929,11.227l0,0l0,0l0,0L159.313,151.883V50.169c0-20.99-17.095-38.067-38.107-38.067
		c-16.31,0-30.254,10.292-35.681,24.714c-5.442-14.403-19.416-24.68-35.759-24.68c-21.061,0-38.195,17.062-38.195,38.033v108.626
		l0,0h4.862l0,0V50.169c0-18.291,14.953-33.171,33.333-33.171c17.755,0,32.31,13.887,33.278,31.32v110.467h4.972V48.314
		c0.967-17.449,15.482-31.35,33.19-31.35c18.331,0,33.244,14.896,33.245,33.204h-0.001v108.625h4.84l0.002,0.002h0.036L263.982,52.6
		h68.066l105.135,106.187l0,0l0,0h4.859l38.252,0.003l0,0h0.004L437.184,113.586z"/>
	<polygon points="159.279,158.795 159.279,158.824 159.33,158.824 159.33,158.795 159.329,158.795 159.292,158.795 	"/>
	<polygon points="437.18,158.795 437.172,158.795 437.172,158.807 437.189,158.807 437.189,158.797 437.193,158.797 
		437.193,158.789 437.18,158.789 	"/>
</g>
</svg>
